# xmcd
#
# Track frame offsets:
#  150
#  15430
#  30520
#  44620
#  60405
#  75357
#  96012
#  114615
#  133625
#  148935
#  167485
#  179505
#
# Disc length: 2607 seconds
#
# Revision: 4
# Processed by: cddbd v1.5.2PL0 Copyright (c) Steve Scherf et al.
# Submitted via: Collectorz.com_Music_Collector 6.11
#
DISCID=950a2d0c
DTITLE=Suzy Bogguss - Something Up My Sleeve
DYEAR=1993
DGENRE=Country
TTITLE0=Diamonds and Tears
TTITLE1=Just Like the Weather
TTITLE2=I Keep Comin' Back
TTITLE3=You Never Will
TTITLE4=You'd Be the One
TTITLE5=Take It To the Limit
TTITLE6=Hey Cinderella
TTITLE7=Souvenirs
TTITLE8=You Wouldn't Say That To A Stranger
TTITLE9=Take It Like a Man
TTITLE10=No Green Eyes
TTITLE11=Something Up My Sleeve
EXTD=
EXTT0=
EXTT1=
EXTT2=
EXTT3=
EXTT4=
EXTT5=
EXTT6=
EXTT7=
EXTT8=
EXTT9=
EXTT10=
EXTT11=
PLAYORDER=
